<svg data-name="Layer 1" xmlns="http://www.w3.org/2000/svg" viewBox="0 0 397.77 309.85"><path d="M115.97 149.36c-1.65-1.35-1.16-2.8-.3-4.37 5.77-10.49 9.21-21.84 12-33.4a27.18 27.18 0 0 0 .24-4c.3-3.45-.92-4.05-4-2.48-3.63 1.87-7.43 3.41-11.16 5.09-4.62 2.08-6.93.73-6.84-4.19.05-3.23.18-6.09-3.83-7.35-2.09-.66-2.5-2.92-2.21-5.06.33-2.48-.47-3.82-3.23-3.43-3.59.51-4-1.27-4.08-4.52-.13-4.51 1.47-8.54 2.38-12.74 1.12-5.21-2.52-9-3.55-13.51a10.25 10.25 0 0 1-.45-4.37 36.73 36.73 0 0 0 0-15.62c-1.63-8.06 3.46-13.18 8.95-17.55 8.2-6.54 17.8-10.72 28.2-11.32 6-.35 12.53.65 18 3.86 3.43 2 5 .88 6.73-1.81 7.6-11.8 18.28-14.75 29.46-11.26 9.14 2.85 13.46 10.19 15.67 19.2 1.37 5.56-.2 10.45-1.43 15.75-2.53 10.94.86 21 6.43 30.49 1.89 3.21 4.52 6 6 10-6.41 1.43-11.49-1.47-15.76-5-9.83-8-13.89-19.26-15.21-31.46-.91-8.35-6.5-14.06-14.85-13.74 6 6.85 10.74 14 12.15 23.2 1.1 7.18-1.07 13.52-3.62 19.86-1.27 3.17-3 6.16-4.25 9.36-2.89 7.17-1.33 13.48 3.16 19.27 1.76 2.26 1.78 3.49-.87 5-11.17 6.33-20.47 14.38-26.71 26.05-5 9.4-14.2 14.31-24 17.71-1.23.43-2.19.59-2.14 2.08-.2.52-.49.57-.88.26ZM296.5 31.28c20.41.94 39.63 17 44.41 36.87a120.43 120.43 0 0 0 4 13.55c1.89 5.12-1.19 6.67-4.67 9.38a46.43 46.43 0 0 0-7.8 7.75c-2.7 3.45-4.93 7.14-9.5 9.36-3.71 1.8-3.15 7.58-4 11.66-1.54 7.83-1.23 7.41-8.83 6.69-3.2-.31-6.31 2.49-9.2 4.4-.11.07-.06.43-.14.45-4.58 1.25-7.88 5-12.06 6.59-4.64 1.8-7.93-2-10.86-5.28-.23-.25-.47-.48-.67-.74-2-2.85-3.14-7.89-7-7.44-5.72.67-11.62 2.54-15.07 8.1-1.64 2.63-3 5.46-5.69 7.25-1.36-2.57-2.62-5.21-4.11-7.7-3.46-5.81-8.79-9.82-14-13.78-6.4-4.84-11.46-10.92-16.59-16.95-2.26-2.64.36-3.37 2-4.11 7.9-3.52 15.78-7.12 23.81-10.32 10.87-4.32 14.45-13.36 16.39-23.78A44.9 44.9 0 0 1 267 42.77c6.26-7.52 15.38-9.55 24.47-10.87 1.64-.23 3.38-1.4 5.03-.62Z" fill="red"/><path d="M206.49 102.82c4.37 6.47 9.06 11.89 15.38 16.29 5.08 3.54 9.39 8.4 13.32 13.26 2.16 2.69 4.82 5 7.1 7.37 5.34 5.62 6.34 12.57 8.36 19.28 1.23 4.08-1.29 7.87-1.75 11.86a52.72 52.72 0 0 1-1.37 6.54 59.64 59.64 0 0 1-10.6 22.21 4.27 4.27 0 0 1-4.52 1.49c-8-1.85-15.61-4.56-21.65-10.61a37.38 37.38 0 0 1-10.19-20.4c-.83-4.62-.42-9.46-.6-14.2-.28-7.69 2-15.13 3.4-22.48 1.21-6.2 0-12.27 1.25-18.4.83-3.96 3.57-7.86 1.87-12.21Z" fill="#f4f4f4"/><path d="M135.19 172.01c-11.24 9.1-14.47 21.74-16.91 34.16-5.08 25.87-3.05 51.27 8.39 75.48a71.21 71.21 0 0 0 9.05 13.69c-6.23 2.68-22.05.93-28.23-3.23-3.43-2.32-8.13-3.58-10-7.18s2-7.28 2.79-11.14c4.13-21.34 5.13-42.52-1.83-63.54-1.3-3.93-2.29-8-3.26-12-2.48-10.37-.68-15.34 8.2-21.24 9.58-6.41 20.27-6.41 31.8-5Z" fill="red"/><path d="M200.93 112.26a71.58 71.58 0 0 1-6.06 26c-1.53 3.34-2.51 6.86-4.53 10.08-4.76 7.58-12.27 10.36-20.1 13.39-8.43 3.26-17 1.4-25.45 2.2-2.35.22-1.78-1.8-1.52-3.26 1.51-8.72 1.75-17.72 5.44-26 2.79-6.24 5.51-12.54 10.77-17.29 2.31-2.09 4.16-4.72 6.6-6.62 7.15-5.6 15.82-7.12 24.48-8.57.64-.11 1.33 0 2 0 8.37-.76 8.37-.76 8.37 10.07ZM395.89 187.12c1.2 2.83-.42 5.42-1.23 7.77-4.26 12.39-8.93 24.73-17.65 34.81-5.74 6.65-12.13 12.73-18.25 19A214.08 214.08 0 0 0 337 274.95c-4.68 6.7-10.18 12.86-13.62 21-.62-1.33-1.27-2.07-1.28-2.81-.34-21.64 1.78-42.61 18.88-58.48 7.69-7.13 16.12-13.47 24.23-20.15 7-5.77 13.81-11.83 21.15-17.16 4-2.87 6.07-7.13 9.57-10.24ZM158.1 236.5c-3.87-8.45-8.35-16.32-8.25-25.91.09-9.29 3.68-17.45 7.79-25.27 3.89-7.39 9.88-13.35 16.44-18.59.13-.11.27-.26.42-.27 7.09-1 10.43-6.86 14.9-11.27 1.78-1.75 2.68-2 3.61.86 1.44 4.47-.31 8.5-1.14 12.61a152.11 152.11 0 0 1-12.85 38.3c-4.66 9.28-11 17.51-16.75 26.07-.88 1.3-2.49 2.1-4.17 3.47Z" fill="#f4f4f4"/><path d="M393.79 176.41a22.62 22.62 0 0 1-22.4 22.65c-13.44.12-23.6-9.77-23.63-23a22.75 22.75 0 0 1 23.22-22.94c13.01.04 22.77 10 22.81 23.29Z" fill="red"/><path d="M124.95 242.22v-1.49c0-8.16-1.59-8.8 8.58-5.81 17.45 5.15 24.52 19.56 30.23 34.81 2.15 5.76 2.76 12.08 4.25 18.1.54 2.15 0 3-2.16 3.34-4.35.75-8.64 1.81-13 2.72-4.07.86-7.22-1.39-9.5-4-11.89-13.58-17.58-29.71-18.4-47.67Z" fill="#f4f4f4"/><path d="M205.75 283.98c-19.44-.62-35.23-11.93-40.63-28.21-2.11-6.35-1.46-12.38 2.43-17.55 11.75-15.6 19.2-33.34 26.3-51.29.29-.74.36-1.65 1.8-1.77a71.82 71.82 0 0 1-2.85 31.75c-7.91 24.59-4.68 46.81 12.95 67.07Z" fill="red"/><path d="M317.88 291.12c-.28 1.94-.77 3.53-3 1.49-9.57-8.73-20.37-16.12-28.58-26.35-1.82-2.27-4.26-4-6.42-6-.39-1-.7-2-2-2.06-6.13-13.1-10.11-26.62-6.89-41.21 1.15-5.2 3.24-10.2 7.34-14.15-1.18 2.93 0 5.6.74 8.16 1.93 6.27 4.19 12.44 6.3 18.65 3.94 11.62 12.8 19.52 21.51 27.24a30.82 30.82 0 0 1 11 23.31 25.37 25.37 0 0 0 0 10.92ZM200.92 196.17c.45-2.12-1.68-4-.3-7 2.27 4.05 6.29 5.35 9.31 8 .89 2.31 3 3.14 5 4 3.83 1.82 7 4.84 11.35 6a36 36 0 0 1-3.83 6.25c-3 3.78-5 7.83-4.76 13.12.19 3.38-.36 7.33-4 9.65a3.81 3.81 0 0 0-1.38 2.56c-1.19 10.87-2.91 21.74 1.9 32.34 1.51 3.35.86 7.17.27 10.78-.45 2.7-1.74 3.44-3.9 1.44a24.2 24.2 0 0 1-3.39-3.63A115.83 115.83 0 0 1 195 256.89c-.88-2.1 1.83-4.87-1.1-6.7a39.44 39.44 0 0 0 0-14c1-2.91.36-6.64 1.37-8.79 1.78-3.78-.41-8 2.31-11.41.67-.85-.67-3.09-.63-4.68 0-2.06-.84-4.32.92-6.14 1.58-2.83 2.12-5.98 3.05-9ZM163.25 167.5c-1.28 4-4.61 6-6.75 8.84a56.56 56.56 0 0 0-11.65 34.81 93.46 93.46 0 0 0 1.34 17.18c.59 3.1-.67 3.69-3.17 2.69a83 83 0 0 0-15-4.33c-2.28-.45-3-1.76-3.17-4.2a76.66 76.66 0 0 1 2.44-24.75c2.5-8.89 6.26-17.64 14.25-23.67 3.9-2.94 15.91-7.41 21.71-6.57ZM137.92 300.07c1.51-1.53 3.46-1 5.18-.89 7.85.65 15-2 22.42-4 7.86-2.1 15.65-5.14 24-4 2.06.28 1.64-2.5 3.41-2a5.45 5.45 0 0 0 5 0c4.69.23 9.5-.25 14.06.25 6.62.71 13.38 2.29 18.6 7.7-6.42-1-12.57.8-18.85 1.17-18.13 1.09-36.11 2.72-53.52 9.1a43.37 43.37 0 0 1-28.72.09c-5.59-1.87-11.52-1.83-17.15-4.29-6.24-2.73-10.89-6.94-16.77-12 6.19 1.22 10 3.9 12.8 8.16 1.64-1.42-1.07-2.85.86-3.73 1.11-.51 2 .09 2.75.66 3.29 2.41 7.77.21 11 2.88a10.27 10.27 0 0 0 7 0c1.7.21 3.6-.65 5 1 .77 1.33 2 .25 3 .54.52.16.73.06.48 0-.11-.03-.28-.37-.55-.64Z" fill="#f4f4f4"/><path d="M41.81 155.09c.1 10.1-8.2 18.74-18 18.8S4.88 165.64 5.4 156.06c.53-9.77 6.1-18.31 18.06-18.69a18.12 18.12 0 0 1 18.35 17.72Z" fill="red"/><path d="M320.85 236.85c-1 2.38-1.62 4.59.82 6.9.9.86-.24 2.59-2.14 1.72-7.28-3.31-15.88-4.32-20.76-11.88-1.9-3-5.42-4.23-7.41-7.23-4.84-7.29-7.17-15.46-9.17-23.86-.69-2.91 1-4 3.23-3.26 6.37 2.15 13.35 1.76 19.14 6.67 7.72 6.56 11.68 14.85 14.5 24.08.63 2.25 1.13 4.51 1.79 6.86ZM225.92 290.12c-6.05-4.34-6.08-11.33-7.61-17.61-.65-2.69 0-5.65-1.25-8.27-2.66-5.68-2.93-11.06.11-17 2.23-4.29 2.13-9.72 3.51-14.17 2.14-6.91 3.3-14.49 7.67-20.65a7.43 7.43 0 0 1 8.83-3c3.27 1.06 4.54 3.51 4.89 7.2.59 6.07-.43 11-5.59 14.77a4.9 4.9 0 0 0-1.78 4.83c1.07 6.56-1.27 12.38-4.62 17.92-.67 1.1-1.18 2.21-2.5 1.83-6.3-1.8-3.34 3.45-2.85 4.61a27.39 27.39 0 0 1 2.18 11.49 7.62 7.62 0 0 0 0 6v3c-1.35 2.95.28 6.17-.99 9.05ZM90.95 206.16c-2.55 12-4.62 24.15-11 34.91-4.85 8.17-11.81 14.34-19.36 19.92-1 .7-1.29.41-1.67-.64-.24-.69-.91-.39-1.59 1.06-.16-.67-.42-1.1-.32-1.42 2.33-8 1.54-16.3 3-24.42 1.67-9.06 7.25-14.38 14-19.54 5.79-4.43 11.22-9.39 14.94-15.86 3.24 1.16.38 4.33 2 5.99ZM34.98 227.16c-16.73-24-31.13-53.1-29.68-60.1 10.53 10.51 21.44 20.6 31.36 31.58 6.65 7.37 12.52 15.64 15.3 25.53-4.46-1-7.7 1.31-11 3.8-1.9 1.38-4.11.34-5.98-.81ZM272.9 149.2l3.34-1.86c-1.8 3.73 0 5.61 2 7.77 4.22 4.57 8.94 8.57 12.71 13.72 6.3 8.61 6.51 18.47 7.89 28.39-8.68-10.44-21.23-16.16-30.24-26-4-4.29-6.47-9.13-6.26-15.53.13-3.74-2.72-7.86-.87-11.49 1.31-2.59 1.37-4.9 1.18-8.63l4.3 7.62c.91 1.08 1 3 3 3l2 2a.91.91 0 0 0-.06 1.26c.37.5.72.14 1.01-.25ZM272.07 196.66c.52 9.81-6.22 15.21-12.84 20-4.56 3.29-12.16-4.27-12.81-10.77-1-10.41 6.3-17.88 8.39-27.14.63-2.82 2.46-5.37 2.17-8.52a3.22 3.22 0 0 1 .93-2.14c.58-.62 1.27-.06 1.6.5 5.14 8.91 11.6 17.29 12.56 28.07ZM75.9 176.42c.55-15.22 2.1-28.76 14.06-38.49a14.43 14.43 0 0 1 5.8-2.72c8.92-2.17 17.53-5.13 26.11-11.44-4.24 8.88-6.86 17-13.79 23.3-6.46 5.9-14.51 9.57-20.41 16-3.68 4.01-7.21 8.16-11.77 13.35ZM87.99 195.2l-1 2a27.21 27.21 0 0 0-5 5c-2.59 4.7-7.52 6.73-11.39 10-.86.71-1.8 1.32-2.69 2-.65-.91-1.8-.9-2.64-1.46-1.23-.83-.3-2.45-1.24-3.4 1.45-7.34 1.72-14.75 6.13-21.58 5.17-8 12.31-11.72 21-13.36 2-.38 4.82-2.46 6-.47s-1.65 3.88-3 5.67c-.69.91-1.44 1.79-2.16 2.68-1.11.71-1.16 2.13-2 3-1 1.25-.36 3-1.21 4.29a7.91 7.91 0 0 0-.57 1.17 14.22 14.22 0 0 0-.22 3.91c-.02.11-.02.33-.01.55ZM115.97 149.36a2.64 2.64 0 0 1 .88-.21c1.37.87 2.63.62 4.17.1 4.57-1.53 9.26-2.74 13.91-4.07a2.24 2.24 0 0 1 2 1c.11 5.21-2.28 10.24-1.07 15.54.22 1-.18 2.24-1.43 2.21-9.92-.22-19.43 3.23-29.45 3.06-4.54-.08-9.25 1.8-14.05 1.17 5.48-5.84 12.67-9.26 19.28-13.47 2.31-1.43 5.37-1.91 5.76-5.33Z" fill="#f4f4f4"/><path d="M230.94 284.15c-.31-2.95-.28-6-1-8.83-2.87-11.75 6.47-20.39 7.69-31 .94-8.09 6.13-13.38 10.3-19.51 1.35 1.85 1.76 2 .45 6.24-2.06 6.66-2 13.62-3.47 20.3-1.16 5.21-2.83 10.28-7.46 13.92-2.84 2.23-1.56 6.21-2.44 9.33-.79 2.79-.68 5.83-2.1 8.49-.54.59-.84 1.65-1.97 1.06ZM51.98 227.16c3 5.42 1.8 11.57 2.77 17.33.92 5.41.2 11.09-.37 16.91-4.36-9.88-10.44-18.75-15.41-28.24a13.62 13.62 0 0 0 7.32-3.77c1.45-1.45 3.28-2.8 5.69-2.23Z" fill="#f4f4f4"/><path d="M51.98 227.16c-2.52 1.66-5.29 2.93-7.35 5.31a4 4 0 0 1-5.66.69 20.89 20.89 0 0 1-4-6c1.94-.82 6 2.53 5.66-2.91 0-.2 1-.75 1.13-.65 4.84 4.27 3.47-2.17 5.29-3.05 2.41.16 2.41 3.58 4.9 3.62.02 1 .02 1.99.03 2.99Z" fill="#eaeaea"/><path d="M200.92 196.17c.84.5 2.16 1.2 1.13 2.15-2.24 2.1-2.21 4.62-2.15 7.29 0 .68.37 1.91-1 1.63-.92-.2-.9-1.27-1-2.08.35-3.22.12-6.66 3.02-8.99Z" fill="#f1f0ed"/><path d="M5.66 142.99c-2.78.88-1.82 4.2-4.66 3.81-1.2-.17-1.11-1.59-.8-2.51.75-2.27 2.38-2.29 5.46-1.3Z" fill="#eee8df"/><path d="M193.94 236.17a21 21 0 0 1 0 14Z" fill="#efede9"/><path d="M90.95 206.16c-2.1-1.52.12-4.48-2-6 .16-1.19-.38-2.7 2-3.31Z" fill="#f1eee9"/><path d="M81.97 202.18c.22-3.1 2.45-4.21 5-5-1.05 2.32-2.21 4.46-5 5Z" fill="#ededed"/><path d="M214.95 201.16c-3.48 1.42-4-2.56-6.24-3.41.08-.13.14-.34.26-.38a5.83 5.83 0 0 1 1-.2c1.61 1.33 3.85 1.98 4.98 3.99Z" fill="#eeefef"/><path d="M317.88 291.12a13.1 13.1 0 0 1 0-11Z" fill="#eeefee"/><path d="M269.92 146.19c-4 2-2.7-1.29-3-3a6.21 6.21 0 0 1 3 3Z" fill="#e8e8e8"/><path d="M272.9 149.2c.2.86 1.26 1.68.24 2.59a1.13 1.13 0 0 1-1.7-.2 2.28 2.28 0 0 1 .46-3.39Z" fill="#eaeaea"/><path d="M225.92 290.12c.43-3-1-6.17 1-9-.45 3 1.03 6.2-1 9Z" fill="#ebebeb"/><path d="m230.94 284.15 2-1c0 1.81.1 3.64-1.41 5.18-1.16-1.36-.34-2.83-.59-4.18Z" fill="#e9eaea"/><path d="m137.92 300.07 1.89.21.07.8h-5.61c-.1 0-.19-.18-.28-.28l1-.69Z" fill="#e0dedf"/><path d="M129.93 299.14a5.79 5.79 0 0 1-7 0Z" fill="#f1e9e4"/><path d="M136.96 146.21a2.12 2.12 0 0 1-2-1c.66-.86 1.51-1.3 2.41-.5.56.48.16 1.09-.41 1.5Z" fill="#f0eeeb"/><path d="M87.95 190.19a5.81 5.81 0 0 1 2-5v2c.53 1.3-.28 2.14-1 3a.61.61 0 0 1-1 0Z" fill="#dfdfde"/><path d="M64.01 209.25c.65 1 1.3 2 1.94 3s-.38 1.37-1 1.86c-1.69-1.36-.76-3.23-.94-4.86Z" fill="#d8d8d8"/><path d="m277.89 258.15.5-1.26c.55 1.08 2.6 1.49 1.49 3.32Z" fill="#e0e0e1"/><path d="M226.92 278.13a4.5 4.5 0 0 1 0-6c-.01 2.01 0 4.01 0 6Z" fill="#ebebeb"/><path d="M87.95 190.19h1c-.19 1.7.64 3.6-1 5l-.07-.07a6 6 0 0 1 0-4.92Z" fill="#f4f4f4"/><path d="M88.95 190.17c.34-1 .69-2 1-3 1.64 1.68 1.13 2.62-1 3Z" fill="#f6f6f6"/><path d="M395.93 187.15c.44-1 .89-2.07 1.54-3.6.55 2.13.5 3.36-1.58 3.57Z" fill="#d4d0cc"/><path d="m64.99 214.08 1-1.86c1.31-.05 2 .56 1.94 1.89Z" fill="#d7d8d8"/><path d="M89.97 185.19c.46-1.14-.23-3.05 2-3a3.11 3.11 0 0 1-2 3Z" fill="#eaeae9"/><path d="M90.96 168.19c-.1 1.6-1 2.25-2.61 2.23.36-1.58 1.71-1.63 2.61-2.23Z" fill="#f4f4f4"/><path d="M3.13 162.5c.29.85.26 1.37-.38 1.22-.35-.08-.71-.6-.85-1s.09-.77.15-1.16Z" fill="#f8eee5"/><path d="M197.92 289.14a3.35 3.35 0 0 1-5 0Z" fill="#edece9"/><path d="M87.95 190.2v4.92a3.32 3.32 0 0 1 0-4.92Z" fill="#cecfce"/></svg>